<svg id="visual" viewBox="0 0 900 600" width="900" height="600" xmlns="http://www.w3.org/2000/svg" xmlns:xlink="http://www.w3.org/1999/xlink" version="1.1"><path d="M0 61L13.7 67C27.3 73 54.7 85 82 85C109.3 85 136.7 73 163.8 63C191 53 218 45 245.2 52C272.3 59 299.7 81 327 83C354.3 85 381.7 67 409 58C436.3 49 463.7 49 491 52C518.3 55 545.7 61 573 65C600.3 69 627.7 71 654.8 67C682 63 709 53 736.2 47C763.3 41 790.7 39 818 38C845.3 37 872.7 37 886.3 37L900 37L900 0L886.3 0C872.7 0 845.3 0 818 0C790.7 0 763.3 0 736.2 0C709 0 682 0 654.8 0C627.7 0 600.3 0 573 0C545.7 0 518.3 0 491 0C463.7 0 436.3 0 409 0C381.7 0 354.3 0 327 0C299.7 0 272.3 0 245.2 0C218 0 191 0 163.8 0C136.7 0 109.3 0 82 0C54.7 0 27.3 0 13.7 0L0 0Z" fill="#557c4f"></path><path d="M0 343L13.7 339C27.3 335 54.7 327 82 319C109.3 311 136.7 303 163.8 284C191 265 218 235 245.2 222C272.3 209 299.7 213 327 218C354.3 223 381.7 229 409 243C436.3 257 463.7 279 491 268C518.3 257 545.7 213 573 221C600.3 229 627.7 289 654.8 312C682 335 709 321 736.2 309C763.3 297 790.7 287 818 283C845.3 279 872.7 281 886.3 282L900 283L900 35L886.3 35C872.7 35 845.3 35 818 36C790.7 37 763.3 39 736.2 45C709 51 682 61 654.8 65C627.7 69 600.3 67 573 63C545.7 59 518.3 53 491 50C463.7 47 436.3 47 409 56C381.7 65 354.3 83 327 81C299.7 79 272.3 57 245.2 50C218 43 191 51 163.8 61C136.7 71 109.3 83 82 83C54.7 83 27.3 71 13.7 65L0 59Z" fill="#2e512a"></path><path d="M0 391L13.7 398C27.3 405 54.7 419 82 425C109.3 431 136.7 429 163.8 402C191 375 218 323 245.2 305C272.3 287 299.7 303 327 307C354.3 311 381.7 303 409 313C436.3 323 463.7 351 491 348C518.3 345 545.7 311 573 316C600.3 321 627.7 365 654.8 385C682 405 709 401 736.2 390C763.3 379 790.7 361 818 371C845.3 381 872.7 419 886.3 438L900 457L900 281L886.3 280C872.7 279 845.3 277 818 281C790.7 285 763.3 295 736.2 307C709 319 682 333 654.8 310C627.7 287 600.3 227 573 219C545.7 211 518.3 255 491 266C463.7 277 436.3 255 409 241C381.7 227 354.3 221 327 216C299.7 211 272.3 207 245.2 220C218 233 191 263 163.8 282C136.7 301 109.3 309 82 317C54.7 325 27.3 333 13.7 337L0 341Z" fill="#244022"></path><path d="M0 511L13.7 510C27.3 509 54.7 507 82 504C109.3 501 136.7 497 163.8 469C191 441 218 389 245.2 374C272.3 359 299.7 381 327 382C354.3 383 381.7 363 409 375C436.3 387 463.7 431 491 433C518.3 435 545.7 395 573 398C600.3 401 627.7 447 654.8 465C682 483 709 473 736.2 470C763.3 467 790.7 471 818 480C845.3 489 872.7 503 886.3 510L900 517L900 455L886.3 436C872.7 417 845.3 379 818 369C790.7 359 763.3 377 736.2 388C709 399 682 403 654.8 383C627.7 363 600.3 319 573 314C545.7 309 518.3 343 491 346C463.7 349 436.3 321 409 311C381.7 301 354.3 309 327 305C299.7 301 272.3 285 245.2 303C218 321 191 373 163.8 400C136.7 427 109.3 429 82 423C54.7 417 27.3 403 13.7 396L0 389Z" fill="#2e512a"></path><path d="M0 601L13.7 601C27.3 601 54.7 601 82 601C109.3 601 136.7 601 163.8 601C191 601 218 601 245.2 601C272.3 601 299.7 601 327 601C354.3 601 381.7 601 409 601C436.3 601 463.7 601 491 601C518.3 601 545.7 601 573 601C600.3 601 627.7 601 654.8 601C682 601 709 601 736.2 601C763.3 601 790.7 601 818 601C845.3 601 872.7 601 886.3 601L900 601L900 515L886.3 508C872.7 501 845.3 487 818 478C790.7 469 763.3 465 736.2 468C709 471 682 481 654.8 463C627.7 445 600.3 399 573 396C545.7 393 518.3 433 491 431C463.7 429 436.3 385 409 373C381.7 361 354.3 381 327 380C299.7 379 272.3 357 245.2 372C218 387 191 439 163.8 467C136.7 495 109.3 499 82 502C54.7 505 27.3 507 13.7 508L0 509Z" fill="#557c4f"></path></svg>